<svg width="21" height="21" viewBox="0 0 21 21" fill="none" xmlns="http://www.w3.org/2000/svg">
<path d="M10.5001 0C4.70116 0 6.10352e-05 4.72075 6.10352e-05 10.544C6.10352e-05 15.7667 3.78554 20.092 8.74892 20.9296V12.7437H6.216V9.79796H8.74892V7.62588C8.74892 5.10564 10.2818 3.73225 12.521 3.73225C13.5934 3.73225 14.5151 3.8125 14.7826 3.84784V6.48217L13.2296 6.48292C12.0121 6.48292 11.7774 7.06377 11.7774 7.91643V9.79645H14.6824L14.3035 12.7422H11.7774V21C16.9725 20.3651 21.0001 15.9296 21.0001 10.5409C21.0001 4.72075 16.299 0 10.5001 0Z" fill="white"/>
</svg>
