<svg width="111" height="111" viewBox="0 0 111 111" fill="none" xmlns="http://www.w3.org/2000/svg">
<path d="M100.005 1.08455e-06C97.1942 -0.00173329 94.9131 2.07692 94.9131 4.64943C94.9093 7.2202 97.1823 9.30406 99.9909 9.30752C102.8 9.31121 105.079 7.22888 105.082 4.65636C105.084 2.08776 102.813 0.00173546 100.005 1.08455e-06Z" fill="white"/>
<path d="M100.888 22.1798C100.89 20.667 99.5541 19.4395 97.9033 19.4376C96.2507 19.4376 94.9093 20.6618 94.9072 22.1746C94.9072 23.687 96.2429 24.9132 97.8955 24.9132C99.5484 24.9167 100.888 23.6907 100.888 22.1798Z" fill="white"/>
<path d="M107.379 12.0676C105.403 12.0639 103.799 13.5253 103.799 15.3315C103.797 17.1395 105.397 18.6044 107.373 18.6099C109.345 18.6099 110.947 17.1486 110.951 15.3386C110.953 13.534 109.354 12.0676 107.379 12.0676Z" fill="white"/>
<path d="M18.7282 94.7292C31.3988 106.324 52.0115 106.324 64.6799 94.7292C69.7231 90.1116 72.9066 84.2663 73.8846 77.8197C74.2267 75.5622 74.2769 73.2765 74.0509 71.0155H9.36123C8.52817 79.4985 11.6496 88.2487 18.7282 94.7292ZM52.8332 81.2128C54.1957 81.2128 55.2976 82.2248 55.2976 83.4703C55.2976 84.7175 54.1957 85.7258 52.8332 85.7258C51.4724 85.7258 50.3667 84.7175 50.3667 83.4703C50.3667 82.2248 51.4724 81.2128 52.8332 81.2128ZM42.4259 91.9269C44.2219 91.9269 45.6791 93.2591 45.6791 94.9026C45.6791 96.5462 44.2219 97.8784 42.4259 97.8784C40.6302 97.8784 39.1749 96.5462 39.1749 94.9026C39.1749 93.2591 40.6305 91.9269 42.4259 91.9269ZM30.1519 79.5623C32.3633 79.5623 34.155 81.2024 34.155 83.2262C34.155 85.25 32.3633 86.8881 30.1519 86.8881C27.9426 86.8881 26.1486 85.25 26.1486 83.2262C26.1486 81.2024 27.9426 79.5623 30.1519 79.5623Z" fill="white"/>
<path d="M85.7238 20.1968L85.5885 20.0728C84.2566 18.8502 82.459 18.1691 80.5726 18.171C78.6881 18.1693 76.8865 18.8505 75.5567 20.0728C74.2231 21.2918 73.4751 22.9371 73.4768 24.6656C73.4768 24.8655 73.4905 25.0619 73.5078 25.2581L57.9593 39.491C52.8524 37.4636 47.3009 36.4021 41.7011 36.4021C30.8246 36.3984 20.5762 40.2837 12.8868 47.3231C5.19378 54.3607 0.949094 63.7443 0.950989 73.6994C0.949094 83.6543 5.19378 93.0379 12.8868 100.076C20.576 107.117 30.8284 111.002 41.7051 111C52.5819 111.002 62.8343 107.117 70.5235 100.076C76.8441 94.294 80.8434 86.9433 82.067 78.8601C82.324 77.1688 82.4517 75.4616 82.4517 73.7614C82.4517 68.6324 81.2996 63.5197 79.0787 58.8243L94.631 44.5916C94.8456 44.6077 95.0621 44.6198 95.2786 44.6198C97.1672 44.6215 98.9647 43.9386 100.296 42.7181C101.568 41.5576 102.303 40.0094 102.367 38.375L102.374 38.3607V38.1254C102.376 36.3987 101.632 34.7534 100.296 33.5346L85.7238 20.1968ZM73.5947 57.9732C80.9921 70.529 78.9027 86.5327 67.3149 97.1389C60.242 103.614 50.9757 106.848 41.7051 106.848C32.4367 106.848 23.1664 103.612 16.0956 97.1389C1.95034 84.1937 1.95034 63.2065 16.0956 50.2598C23.1664 43.7864 32.4329 40.5525 41.7011 40.5525C47.62 40.5525 53.5405 41.8741 58.8868 44.5118L77.049 27.8907L91.7547 41.3503L73.5947 57.9732ZM97.0878 39.7811C96.589 40.2394 95.9357 40.4675 95.2786 40.4675C94.9306 40.4675 94.5827 40.3986 94.256 40.2693L94.3025 40.2286L78.3501 25.6278L78.2786 25.6932C77.8107 24.8211 77.9694 23.7347 78.7637 23.0093C79.2644 22.5512 79.9177 22.3229 80.5729 22.3229C81.2283 22.3229 81.8835 22.5512 82.3821 23.0093L97.0878 36.4689C98.0869 37.384 98.089 38.8647 97.0878 39.7811Z" fill="white"/>
</svg>
