<svg width="124" height="102" viewBox="0 0 124 102" fill="none" xmlns="http://www.w3.org/2000/svg">
<path d="M0 31C0 28.2386 2.23858 26 5 26H38C58.9868 26 76 43.0132 76 64V97C76 99.7614 73.7614 102 71 102H38C17.0132 102 0 84.9868 0 64V31Z" fill="#A5ABDA"/>
<path d="M32.816 34.072C32.816 25.768 34.304 19.264 37.28 14.56C40.304 9.856 45.296 7.504 52.256 7.504C59.216 7.504 64.184 9.856 67.16 14.56C70.184 19.264 71.696 25.768 71.696 34.072C71.696 42.424 70.184 48.976 67.16 53.728C64.184 58.48 59.216 60.856 52.256 60.856C45.296 60.856 40.304 58.48 37.28 53.728C34.304 48.976 32.816 42.424 32.816 34.072ZM61.76 34.072C61.76 30.52 61.52 27.544 61.04 25.144C60.608 22.696 59.696 20.704 58.304 19.168C56.96 17.632 54.944 16.864 52.256 16.864C49.568 16.864 47.528 17.632 46.136 19.168C44.792 20.704 43.88 22.696 43.4 25.144C42.968 27.544 42.752 30.52 42.752 34.072C42.752 37.72 42.968 40.792 43.4 43.288C43.832 45.736 44.744 47.728 46.136 49.264C47.528 50.752 49.568 51.496 52.256 51.496C54.944 51.496 56.984 50.752 58.376 49.264C59.768 47.728 60.68 45.736 61.112 43.288C61.544 40.792 61.76 37.72 61.76 34.072ZM78.9309 50.776V42.856L102.475 9.16H114.211V41.992H120.547V50.776H114.211V61H104.131V50.776H78.9309ZM104.779 19.96L90.0189 41.992H104.779V19.96Z" fill="#313131"/>
</svg>
