<svg width="23" height="23" viewBox="0 0 23 23" fill="none" xmlns="http://www.w3.org/2000/svg">
<g clip-path="url(#clip0_211_13)">
<rect width="23" height="23" fill="#2C4094"/>
<path fill-rule="evenodd" clip-rule="evenodd" d="M11.5 17.25C14.6756 17.25 17.25 14.6756 17.25 11.5C17.25 8.32436 14.6756 5.75 11.5 5.75C8.32436 5.75 5.75 8.32436 5.75 11.5C5.75 14.6756 8.32436 17.25 11.5 17.25ZM11.5 15.3333C13.6171 15.3333 15.3333 13.6171 15.3333 11.5C15.3333 9.38291 13.6171 7.66667 11.5 7.66667C9.38291 7.66667 7.66667 9.38291 7.66667 11.5C7.66667 13.6171 9.38291 15.3333 11.5 15.3333Z" fill="white"/>
<path d="M17.25 4.79175C16.7207 4.79175 16.2917 5.22081 16.2917 5.75008C16.2917 6.27935 16.7207 6.70841 17.25 6.70841C17.7793 6.70841 18.2084 6.27935 18.2084 5.75008C18.2084 5.22081 17.7793 4.79175 17.25 4.79175Z" fill="white"/>
<path fill-rule="evenodd" clip-rule="evenodd" d="M1.58502 4.09781C0.958313 5.3278 0.958313 6.93795 0.958313 10.1583V12.8416C0.958313 16.0619 0.958313 17.6721 1.58502 18.902C2.1363 19.9839 3.01593 20.8636 4.09787 21.4148C5.32786 22.0416 6.93802 22.0416 10.1583 22.0416H12.8416C16.0619 22.0416 17.6721 22.0416 18.902 21.4148C19.984 20.8636 20.8637 19.9839 21.4149 18.902C22.0416 17.6721 22.0416 16.0619 22.0416 12.8416V10.1583C22.0416 6.93795 22.0416 5.3278 21.4149 4.09781C20.8637 3.01587 19.984 2.13624 18.902 1.58496C17.6721 0.958252 16.0619 0.958252 12.8416 0.958252H10.1583C6.93802 0.958252 5.32786 0.958252 4.09787 1.58496C3.01593 2.13624 2.1363 3.01587 1.58502 4.09781ZM12.8416 2.87492H10.1583C8.51653 2.87492 7.40047 2.87641 6.53781 2.94689C5.6975 3.01554 5.26778 3.13998 4.96802 3.29272C4.24673 3.66024 3.6603 4.24667 3.29278 4.96796C3.14004 5.26772 3.01561 5.69744 2.94695 6.53774C2.87647 7.40041 2.87498 8.51647 2.87498 10.1583V12.8416C2.87498 14.4834 2.87647 15.5994 2.94695 16.4621C3.01561 17.3024 3.14004 17.7322 3.29278 18.0319C3.6603 18.7532 4.24673 19.3396 4.96802 19.7071C5.26778 19.8598 5.6975 19.9843 6.53781 20.0529C7.40047 20.1234 8.51653 20.1249 10.1583 20.1249H12.8416C14.4835 20.1249 15.5994 20.1234 16.4621 20.0529C17.3025 19.9843 17.7322 19.8598 18.032 19.7071C18.7532 19.3396 19.3396 18.7532 19.7071 18.0319C19.8599 17.7322 19.9844 17.3024 20.053 16.4621C20.1234 15.5994 20.125 14.4834 20.125 12.8416V10.1583C20.125 8.51647 20.1234 7.40041 20.053 6.53774C19.9844 5.69744 19.8599 5.26772 19.7071 4.96796C19.3396 4.24667 18.7532 3.66024 18.032 3.29272C17.7322 3.13998 17.3025 3.01554 16.4621 2.94689C15.5994 2.87641 14.4835 2.87492 12.8416 2.87492Z" fill="white"/>
</g>
<defs>
<clipPath id="clip0_211_13">
<rect width="23" height="23" fill="white"/>
</clipPath>
</defs>
</svg>
