<svg width="21" height="21" viewBox="0 0 21 21" fill="none" xmlns="http://www.w3.org/2000/svg">
<path d="M19.4855 0H1.5146C0.678101 0 6.10352e-05 0.67804 6.10352e-05 1.51453V19.4855C6.10352e-05 20.322 0.678101 21 1.5146 21H19.4855C20.322 21 21.0001 20.322 21.0001 19.4855V1.51453C21.0001 0.67804 20.322 0 19.4855 0V0ZM7.44888 15.873H4.89165V8.17957H7.44888V15.873ZM6.17035 7.12903H6.15369C5.29556 7.12903 4.74057 6.53831 4.74057 5.80003C4.74057 5.04508 5.31255 4.4707 6.18733 4.4707C7.06212 4.4707 7.60045 5.04508 7.61711 5.80003C7.61711 6.53831 7.06212 7.12903 6.17035 7.12903ZM16.6697 15.873H14.1128V11.7572C14.1128 10.7229 13.7425 10.0174 12.8173 10.0174C12.1109 10.0174 11.6902 10.4933 11.5053 10.9526C11.4377 11.117 11.4212 11.3467 11.4212 11.5767V15.873H8.86408C8.86408 15.873 8.89757 8.90135 8.86408 8.17957H11.4212V9.26889C11.761 8.74466 12.369 7.99901 13.7257 7.99901C15.4082 7.99901 16.6697 9.09858 16.6697 11.4616V15.873Z" fill="white"/>
</svg>
