<svg width="110" height="111" viewBox="0 0 110 111" fill="none" xmlns="http://www.w3.org/2000/svg">
<path d="M37.3084 59.4313L41.2501 61.8208C41.8917 61.8208 42.2278 61.5433 42.2278 61.0038C42.1808 60.4929 42.0244 59.9985 41.7695 59.5546L33.214 43.3517L14.2848 43.8142C14.1085 43.7992 13.9311 43.824 13.7655 43.8868C13.5999 43.9496 13.4503 44.0488 13.3274 44.1772C13.2045 44.3056 13.1115 44.46 13.0551 44.6292C12.9988 44.7984 12.9804 44.9782 13.0015 45.1554C13.0015 45.3559 13.2765 45.6179 13.8112 45.9725L17.7376 48.3621L13.5056 54.8834C12.5351 56.2439 11.9394 57.8398 11.7792 59.5084C11.8364 60.8211 12.2313 62.0963 12.9251 63.2083L25.8042 85.8709C25.5095 84.5343 25.3559 83.17 25.3459 81.8009C25.3812 79.3646 26.1308 76.9935 27.5001 74.9867L37.3237 59.4313H37.3084Z" fill="white"/>
<path d="M42.2737 46.25L52.8917 29.6C48.9195 20.4733 44.7028 15.91 40.2417 15.91C37.5528 15.91 35.75 16.6654 34.8181 18.1762L24.7653 34.3791L42.2737 46.25Z" fill="white"/>
<path d="M33.6112 91.1896H54.0987V69.6833H34.3598C32.697 71.9609 31.1666 74.3339 29.7764 76.7904C28.7992 78.6595 28.2755 80.736 28.2487 82.8492C28.2487 88.4095 30.0209 91.1896 33.5653 91.1896H33.6112Z" fill="white"/>
<path d="M75.8237 42.2417L84.9904 26.825C85.2868 26.3097 85.4448 25.7251 85.4487 25.1292C85.4487 24.4354 85.2195 24.0809 84.7612 24.0809C84.467 24.2391 84.1537 24.3583 83.8292 24.4354L79.6279 26.2084L75.8237 18.6388C74.1635 15.2266 70.7871 13.5204 65.6945 13.5204H41.9223C44.0191 14.0421 46.0096 14.9291 47.8042 16.1413C50.2385 18.0838 52.7237 21.7324 55.2598 27.0871L59.9959 37.1079L56.5279 38.8038C56.3548 38.8862 56.2117 39.0212 56.1186 39.1899C56.0254 39.3585 55.9869 39.5523 56.0084 39.7442C56.0084 40.3146 56.3751 40.6538 57.1084 40.7309L75.8848 42.2725L75.8237 42.2417Z" fill="white"/>
<path d="M84.9445 87.9829L98.2209 63.6246C96.5302 65.6927 94.3191 67.2636 91.8195 68.1725C89.2439 68.8884 86.5755 69.2055 83.9056 69.1129H69.1167V66.0296C69.1167 64.8271 68.8264 64.2258 68.2459 64.2258C68.0659 64.2115 67.8854 64.247 67.7239 64.3285C67.5623 64.41 67.4259 64.5344 67.3292 64.6883L58.0556 81.0454L67.757 96.0921C68.4903 97.2175 69.1167 97.6337 69.6514 97.4179C70.1862 97.2021 70.4612 96.9862 70.4612 96.5546V91.4208H78.6653C79.9407 91.5296 81.22 91.2628 82.3481 90.6525C83.4762 90.0423 84.4047 89.115 85.0209 87.9829H84.9445Z" fill="white"/>
<path d="M79.1695 66.0141H88.0001C90.4515 65.8799 92.78 64.8877 94.5848 63.2083C97.019 61.2658 98.2311 59.2102 98.2209 57.0416C98.1967 55.9736 97.8562 54.9373 97.2431 54.0662L86.732 37.8787L68.6584 48.4854L79.1695 66.0141Z" fill="white"/>
</svg>
