<svg width="110" height="110" viewBox="0 0 110 110" fill="none" xmlns="http://www.w3.org/2000/svg">
<g clip-path="url(#clip0_306_16)">
<path d="M22.5259 94.8819C20.3672 99.3712 19.0025 102.365 6.98156 102.802C7.32531 91.2038 9.53905 89.9594 13.9631 87.7525C15.8194 86.8244 18.1328 85.6728 20.6353 83.7513L16.4484 78.4059C14.4719 79.9253 12.6534 80.7228 10.8969 81.5959C3.52343 85.2741 0.0481181 88.8938 0.0481181 106.157L0.106556 109.67L3.48562 109.594C21.7078 109.594 25.1144 105.476 28.5278 98.3881C29.2737 96.8344 29.6897 95.7825 30.9512 93.6891L25.8534 89.0588C24.3272 91.1453 23.3716 93.1253 22.5259 94.875V94.8819ZM75.7281 20.2675C68.1244 20.2675 61.9403 26.4516 61.9403 34.0519C61.9403 41.6522 68.1278 47.8397 75.7281 47.8397C83.3284 47.8397 89.5159 41.6522 89.5159 34.0519C89.5159 26.4516 83.3284 20.2675 75.7281 20.2675ZM75.7281 40.9372C71.9331 40.9372 68.8428 37.8469 68.8428 34.0553C68.8428 30.2637 71.9297 27.1734 75.7281 27.1734C79.5266 27.1734 82.6134 30.2637 82.6134 34.0553C82.6134 37.8503 79.5266 40.9372 75.7281 40.9372ZM109.976 3.14874C109.873 1.43343 108.512 0.0584304 106.796 -0.0687571C106.796 -0.0687571 87.56 -1.47126 69.0525 5.44156C62.2909 7.96812 56.7256 11.9659 51.5316 18.0262C47.2003 23.0794 42.8966 32.2094 39.0981 39.7925C37.6303 42.7178 36.2278 45.5194 35.0384 47.6575H15.9156C14.9325 47.6575 13.9975 48.0803 13.3444 48.8125L0.742493 62.4697C-0.0618819 63.3806 -0.330007 64.6456 0.0412431 65.8006C0.412493 66.9556 1.36468 67.8356 2.54718 68.1037L23.0587 72.7925C24.4578 74.5181 26.785 77.0997 30.5112 81.235L38.2834 89.8494L42.4669 107.546C42.7419 108.711 43.6047 109.653 44.7459 110.021C45.0931 110.131 45.4541 110.189 45.8081 110.189C46.6194 110.189 47.4134 109.904 48.0459 109.361L60.7819 96.69C61.5416 96.0403 61.9816 95.0847 61.9816 94.0809V76.3434C63.6934 75.2812 66.7287 73.6416 69.5853 72.0431C77.3678 67.6947 88.99 62.2772 93.8059 57.9941C100.592 51.9647 103.06 47.5441 105.487 41.0094C111.255 25.4684 110.034 4.05281 109.976 3.14874ZM99.0447 38.6134C96.9272 44.3162 95.0091 47.7262 89.2409 52.8516C84.9819 56.6362 73.3287 62.0709 66.2303 66.0412C60.9331 69.0009 57.7603 70.73 56.3681 71.8678C55.5672 72.5175 55.1031 73.4972 55.1031 74.5284V92.4963L47.85 100.468L44.7597 87.4053C44.6256 86.845 44.3541 86.3259 43.9656 85.8963C37.6441 78.8906 28.0947 68.2997 27.3625 67.4575C26.8847 66.8766 26.2212 66.4641 25.4753 66.2922L9.72812 62.6897L17.4522 54.5256H37.0081C38.2044 54.5256 39.3147 53.9034 39.9369 52.8894C41.4494 50.4281 43.2025 46.9219 45.2375 42.8691C48.6819 36.0009 52.965 26.9122 56.7462 22.4984C61.215 17.2872 65.7491 14.0112 71.4519 11.88C84.1397 7.13968 97.2297 6.64124 103.214 6.68593C103.324 13.0247 103.087 27.72 99.0412 38.6169L99.0447 38.6134Z" fill="white"/>
</g>
<defs>
<clipPath id="clip0_306_16">
<rect width="110" height="110" fill="white"/>
</clipPath>
</defs>
</svg>
