<svg width="119" height="102" viewBox="0 0 119 102" fill="none" xmlns="http://www.w3.org/2000/svg">
<path d="M0 31C0 28.2386 2.23858 26 5 26H38C58.9868 26 76 43.0132 76 64V97C76 99.7614 73.7614 102 71 102H38C17.0132 102 0 84.9868 0 64V31Z" fill="#A5ABDA"/>
<path d="M32.816 34.072C32.816 25.768 34.304 19.264 37.28 14.56C40.304 9.856 45.296 7.504 52.256 7.504C59.216 7.504 64.184 9.856 67.16 14.56C70.184 19.264 71.696 25.768 71.696 34.072C71.696 42.424 70.184 48.976 67.16 53.728C64.184 58.48 59.216 60.856 52.256 60.856C45.296 60.856 40.304 58.48 37.28 53.728C34.304 48.976 32.816 42.424 32.816 34.072ZM61.76 34.072C61.76 30.52 61.52 27.544 61.04 25.144C60.608 22.696 59.696 20.704 58.304 19.168C56.96 17.632 54.944 16.864 52.256 16.864C49.568 16.864 47.528 17.632 46.136 19.168C44.792 20.704 43.88 22.696 43.4 25.144C42.968 27.544 42.752 30.52 42.752 34.072C42.752 37.72 42.968 40.792 43.4 43.288C43.832 45.736 44.744 47.728 46.136 49.264C47.528 50.752 49.568 51.496 52.256 51.496C54.944 51.496 56.984 50.752 58.376 49.264C59.768 47.728 60.68 45.736 61.112 43.288C61.544 40.792 61.76 37.72 61.76 34.072ZM79.5069 22.336C79.7469 17.536 81.4269 13.84 84.5469 11.248C87.7149 8.608 91.8669 7.288 97.0029 7.288C100.507 7.288 103.507 7.912 106.003 9.16C108.499 10.36 110.371 12.016 111.619 14.128C112.915 16.192 113.563 18.544 113.563 21.184C113.563 24.208 112.771 26.776 111.187 28.888C109.651 30.952 107.803 32.344 105.643 33.064V33.352C108.427 34.216 110.587 35.752 112.123 37.96C113.707 40.168 114.499 43 114.499 46.456C114.499 49.336 113.827 51.904 112.483 54.16C111.187 56.416 109.243 58.192 106.651 59.488C104.107 60.736 101.035 61.36 97.4349 61.36C92.0109 61.36 87.5949 59.992 84.1869 57.256C80.7789 54.52 78.9789 50.488 78.7869 45.16H88.5789C88.6749 47.512 89.4669 49.408 90.9549 50.848C92.4909 52.24 94.5789 52.936 97.2189 52.936C99.6669 52.936 101.539 52.264 102.835 50.92C104.179 49.528 104.851 47.752 104.851 45.592C104.851 42.712 103.939 40.648 102.115 39.4C100.291 38.152 97.4589 37.528 93.6189 37.528H91.5309V29.248H93.6189C100.435 29.248 103.843 26.968 103.843 22.408C103.843 20.344 103.219 18.736 101.971 17.584C100.771 16.432 99.0189 15.856 96.7149 15.856C94.4589 15.856 92.7069 16.48 91.4589 17.728C90.2589 18.928 89.5629 20.464 89.3709 22.336H79.5069Z" fill="#313131"/>
</svg>
