<svg width="23" height="19" viewBox="0 0 23 19" fill="none" xmlns="http://www.w3.org/2000/svg">
<path d="M23.0001 2.24931C22.1447 2.63077 21.2334 2.88362 20.2832 3.00638C21.2607 2.413 22.0068 1.48054 22.3575 0.356615C21.4461 0.909077 20.4399 1.29931 19.3675 1.51708C18.5021 0.580231 17.2687 0 15.9232 0C13.3127 0 11.2111 2.15431 11.2111 4.79531C11.2111 5.17531 11.2427 5.54069 11.3204 5.88854C7.40031 5.69415 3.93162 3.78392 1.60144 0.874C1.19462 1.59162 0.955999 2.413 0.955999 3.29723C0.955999 4.95754 1.79694 6.42931 3.05044 7.28138C2.29287 7.26677 1.54969 7.04315 0.920061 6.69092C0.920061 6.70554 0.920061 6.72454 0.920061 6.74354C0.920061 9.07323 2.5545 11.0083 4.69781 11.4541C4.314 11.5608 3.89569 11.6119 3.46156 11.6119C3.15969 11.6119 2.85494 11.5944 2.56887 11.5301C3.17981 13.4286 4.91344 14.8244 6.97481 14.8697C5.37056 16.1456 3.33362 16.9144 1.1285 16.9144C0.741811 16.9144 0.370936 16.8968 6.10352e-05 16.8486C2.08875 18.2181 4.56412 19 7.23356 19C15.9103 19 20.6541 11.6923 20.6541 5.358C20.6541 5.14608 20.6469 4.94146 20.6368 4.73831C21.5726 4.06308 22.3589 3.21977 23.0001 2.24931Z" fill="white"/>
</svg>
