<svg width="117" height="102" viewBox="0 0 117 102" fill="none" xmlns="http://www.w3.org/2000/svg">
<path d="M0 31C0 28.2386 2.23858 26 5 26H38C58.9868 26 76 43.0132 76 64V97C76 99.7614 73.7614 102 71 102H38C17.0132 102 0 84.9868 0 64V31Z" fill="#A5ABDA"/>
<path d="M32.816 34.072C32.816 25.768 34.304 19.264 37.28 14.56C40.304 9.856 45.296 7.504 52.256 7.504C59.216 7.504 64.184 9.856 67.16 14.56C70.184 19.264 71.696 25.768 71.696 34.072C71.696 42.424 70.184 48.976 67.16 53.728C64.184 58.48 59.216 60.856 52.256 60.856C45.296 60.856 40.304 58.48 37.28 53.728C34.304 48.976 32.816 42.424 32.816 34.072ZM61.76 34.072C61.76 30.52 61.52 27.544 61.04 25.144C60.608 22.696 59.696 20.704 58.304 19.168C56.96 17.632 54.944 16.864 52.256 16.864C49.568 16.864 47.528 17.632 46.136 19.168C44.792 20.704 43.88 22.696 43.4 25.144C42.968 27.544 42.752 30.52 42.752 34.072C42.752 37.72 42.968 40.792 43.4 43.288C43.832 45.736 44.744 47.728 46.136 49.264C47.528 50.752 49.568 51.496 52.256 51.496C54.944 51.496 56.984 50.752 58.376 49.264C59.768 47.728 60.68 45.736 61.112 43.288C61.544 40.792 61.76 37.72 61.76 34.072ZM82.5309 49.624C87.1389 45.784 90.8109 42.592 93.5469 40.048C96.2829 37.456 98.5629 34.768 100.387 31.984C102.211 29.2 103.123 26.464 103.123 23.776C103.123 21.328 102.547 19.408 101.395 18.016C100.243 16.624 98.4669 15.928 96.0669 15.928C93.6669 15.928 91.8189 16.744 90.5229 18.376C89.2269 19.96 88.5549 22.144 88.5069 24.928H78.7149C78.9069 19.168 80.6109 14.8 83.8269 11.824C87.0909 8.848 91.2189 7.36 96.2109 7.36C101.683 7.36 105.883 8.824 108.811 11.752C111.739 14.632 113.203 18.448 113.203 23.2C113.203 26.944 112.195 30.52 110.179 33.928C108.163 37.336 105.859 40.312 103.267 42.856C100.675 45.352 97.2909 48.376 93.1149 51.928H114.355V60.28H78.7869V52.792L82.5309 49.624Z" fill="#313131"/>
</svg>
